<?xml version="1.0" encoding="UTF-8"?>
<svg width="675px" height="539px" viewBox="0 0 675 539" version="1.1" xmlns="http://www.w3.org/2000/svg" xmlns:xlink="http://www.w3.org/1999/xlink">
    <title>imac</title>
    <defs>
        <linearGradient x1="50%" y1="0%" x2="50%" y2="100%" id="linearGradient-1">
            <stop stop-color="#A7A7A7" offset="0%"></stop>
            <stop stop-color="#C2C2C2" offset="66.6520979%"></stop>
            <stop stop-color="#D8D8D8" offset="100%"></stop>
        </linearGradient>
        <path d="M13.2661133,64.9125977 C16.7786396,63.9483611 17.835362,62.2001334 18.409372,58.8868282 L18.5101643,58.2571314 L18.5101643,58.2571314 L18.6012329,57.5716041 L18.6012329,57.5716041 L18.8341325,55.6132284 L18.8341325,55.6132284 L19.8067963,46.7523925 L19.8067963,46.7523925 L21.7613439,28.2084799 L21.7613439,28.2084799 L24.6806641,0 L24.6806641,0 L172.585449,0 L176.416974,36.9220066 L176.416974,36.9220066 L177.661987,48.6371136 L177.661987,48.6371136 L178.486673,56.0864866 L178.486673,56.0864866 L178.714978,57.9602582 L178.714978,57.9602582 L178.767578,58.3356934 L178.767578,58.3356934 L178.856741,58.8868282 C179.415238,62.1105847 180.430706,63.8527191 183.720543,64.8326829 L184,64.9125977 L13.2661133,64.9125977 Z" id="path-2"></path>
    </defs>
    <g id="Page-1" stroke="none" stroke-width="1" fill="none" fill-rule="evenodd">
        <g id="Desktop-HD" transform="translate(-259.000000, -185.000000)">
            <g id="imac" transform="translate(259.000000, 185.000000)">
                <g id="Group" transform="translate(238.000000, 461.087402)">
                    <g id="Path">
                        <use fill="#D8D8D8" xlink:href="#path-2"></use>
                        <use fill="url(#linearGradient-1)" xlink:href="#path-2"></use>
                    </g>
                    <rect id="Rectangle" fill="#C0C0C0" x="0" y="64.9125977" width="199" height="13"></rect>
                </g>
                <g id="Group-3" transform="translate(0.000000, 5.000000)">
                    <path d="M657,-1 C661.69442,-1 665.94442,0.902789813 669.020815,3.97918472 C672.09721,7.05557963 674,11.3055796 674,16 L674,16 L674,440 C674,444.69442 672.09721,448.94442 669.020815,452.020815 C665.94442,455.09721 661.69442,457 657,457 L657,457 L18,457 C13.3055796,457 9.05557963,455.09721 5.97918472,452.020815 C2.90278981,448.94442 1,444.69442 1,440 L1,440 L1,16 C1,11.3055796 2.90278981,7.05557963 5.97918472,3.97918472 C9.05557963,0.902789813 13.3055796,-1 18,-1 L18,-1 Z" id="Mask" stroke="#C6C4C4" stroke-width="2" fill="#323232"></path>
                    <path d="M675,396 L675,440 C675,449.941125 666.941125,458 657,458 L18,458 C8.0588745,458 0,449.941125 0,440 L0,396 L675,396 Z" id="Rectangle" fill="#C6C4C4"></path>
                    <rect id="Rectangle" fill="#000000" x="30.3333333" y="25" width="615" height="346"></rect>
                </g>
            </g>
        </g>
    </g>
</svg>