<?xml version="1.0" encoding="UTF-8"?>
<svg width="269px" height="373px" viewBox="0 0 269 373" version="1.1" xmlns="http://www.w3.org/2000/svg" xmlns:xlink="http://www.w3.org/1999/xlink">
    <title>ipad</title>
    <g id="Page-1" stroke="none" stroke-width="1" fill="none" fill-rule="evenodd">
        <g id="Desktop-HD" transform="translate(-827.000000, -351.000000)">
            <g id="ipad" transform="translate(827.000000, 351.000000)">
                <path d="M245,0.5 C251.489346,0.5 257.364346,3.13032709 261.617009,7.38299064 C265.869673,11.6356542 268.5,17.5106542 268.5,24 L268.5,24 L268.5,349 C268.5,355.489346 265.869673,361.364346 261.617009,365.617009 C257.364346,369.869673 251.489346,372.5 245,372.5 L245,372.5 L24,372.5 C17.5106542,372.5 11.6356542,369.869673 7.38299064,365.617009 C3.13032709,361.364346 0.5,355.489346 0.5,349 L0.5,349 L0.5,24 C0.5,17.5106542 3.13032709,11.6356542 7.38299064,7.38299064 C11.6356542,3.13032709 17.5106542,0.5 24,0.5 L24,0.5 Z" id="Rectangle" stroke="#C6C4C4" fill="#323232"></path>
                <path d="M24,17 L244,17 C248.418278,17 252,20.581722 252,25 L252,348 C252,352.418278 248.418278,356 244,356 L24,356 C19.581722,356 16,352.418278 16,348 L16,25 C16,20.581722 19.581722,17 24,17 Z" id="Rectangle" fill="#000000"></path>
            </g>
        </g>
    </g>
</svg>