<?xml version="1.0" encoding="UTF-8"?>
<svg width="129px" height="263px" viewBox="0 0 129 263" version="1.1" xmlns="http://www.w3.org/2000/svg" xmlns:xlink="http://www.w3.org/1999/xlink">
    <title>iphone</title>
    <g id="Page-1" stroke="none" stroke-width="1" fill="none" fill-rule="evenodd">
        <g id="Desktop-HD" transform="translate(-734.000000, -461.000000)">
            <g id="iphone" transform="translate(734.000000, 461.000000)">
                <path d="M109.22,0.5 C114.54406,0.5 119.364105,2.65666641 122.853126,6.14356638 C126.342037,9.63035632 128.5,14.4473046 128.5,19.7679739 L128.5,19.7679739 L128.5,243.232026 C128.5,248.552695 126.342037,253.369644 122.853126,256.856434 C119.364105,260.343334 114.54406,262.5 109.22,262.5 L109.22,262.5 L19.78,262.5 C14.4559402,262.5 9.635895,260.343334 6.14687373,256.856434 C2.65796255,253.369644 0.5,248.552695 0.5,243.232026 L0.5,243.232026 L0.5,19.7679739 C0.5,14.4473046 2.65796255,9.63035632 6.14687373,6.14356638 C9.635895,2.65666641 14.4559402,0.5 19.78,0.5 L19.78,0.5 Z" id="Rectangle" stroke="#C6C4C4" fill="#323232"></path>
                <path d="M20.7481481,6 L40.5963644,6 L40.5963644,11.3158125 L40.5963644,11.3158125 C40.5963644,13.7124769 43.6246309,15.8881694 47.3216024,15.8881694 L82.7309686,15.8881694 C86.0977408,15.8881694 88.7346518,13.0585535 88.7346518,10.4986997 L88.7346518,6 L88.7346518,6 L109.251852,6 C116.844744,6 123,12.1366022 123,19.7064846 L123,243.293515 C123,250.863398 116.844744,257 109.251852,257 L20.7481481,257 C13.1552556,257 7,250.863398 7,243.293515 L7,19.7064846 C7,12.1366022 13.1552556,6 20.7481481,6 Z" id="Rectangle" fill="#000000"></path>
            </g>
        </g>
    </g>
</svg>